<svg width="182" height="38" viewBox="0 0 182 38" fill="none" xmlns="http://www.w3.org/2000/svg">
<g clip-path="url(#clip0_3925_5817)">
<path fill-rule="evenodd" clip-rule="evenodd" d="M15.5893 -31.6927C11.5989 -31.1111 8.95401 -30.6176 7.41454 -30.1674C-0.442171 -27.8702 -8.06781 -23.0946 -13.2561 -17.2227C-20.9778 -8.48315 -24.6057 2.87737 -23.2262 13.9988C-22.4613 20.1638 -20.6973 24.8202 -17.03 30.3531C-13.1181 36.2548 -10.8771 38.6159 -6.32713 41.629C0.438742 46.1097 8.02645 49.2799 14.6083 50.3765C18.3404 50.9982 25.1623 50.4024 30.0643 49.0269C31.8976 48.5126 38.7071 45.8361 40.5496 44.9059C42.3705 43.9864 45.4514 41.8958 47.5956 40.1246C53.055 35.6148 58.2849 27.7489 60.4749 20.7542C61.5938 17.1801 62.0017 14.2344 62.005 9.70362C62.0113 0.96513 60.1662 -5.36584 55.5918 -12.2998C53.476 -15.5071 52.156 -17.1107 49.348 -19.8842C43.39 -25.7694 35.0125 -29.9507 26.489 -31.2931C24.4087 -31.6206 16.9668 -31.8935 15.5893 -31.6927ZM16.5696 -28.3188C11.1161 -27.9432 5.08876 -26.3785 1.31072 -24.3572C-3.31467 -21.8828 -8.17724 -18.193 -10.5699 -15.3425C-13.231 -12.1725 -15.1347 -9.32199 -16.5966 -6.31891C-18.6856 -2.02814 -19.5822 1.5633 -20.0638 7.56794C-20.3034 10.5553 -20.0407 13.8666 -19.2635 17.6567C-18.0421 23.6131 -13.0006 31.9545 -7.60937 36.9387C-6.0409 38.3888 -2.8244 40.8338 -2.67813 40.6873C-2.62559 40.635 -2.77557 40.214 -3.01122 39.7523C-4.96358 35.9252 -5.91207 32.322 -6.04679 28.2198C-6.16167 24.7192 -5.93932 22.9247 -4.9808 19.6223C-4.10795 16.6147 -2.72457 13.9754 -0.409908 10.9026C3.32825 5.93975 6.81113 3.40382 12.1014 1.79263C15.0182 0.90453 16.6671 0.656887 19.666 0.656887C23.8262 0.656887 27.9849 1.65028 31.0863 3.38464C34.2561 5.15737 38.1109 8.85868 40.3911 12.3195C43.4853 17.0156 44.6511 20.725 44.8517 26.5107C44.9493 29.3292 44.8981 30.1327 44.4951 32.1007C43.9132 34.9416 42.6914 38.6216 41.9659 39.7179C41.2618 40.7819 41.2786 40.8527 42.13 40.4128C46.711 38.045 52.8824 30.539 55.8233 23.7581C58.378 17.8679 59.1196 13.444 58.6616 6.82676C58.4157 3.27651 58.3049 2.60858 57.4042 -0.760075C56.5791 -3.84578 53.5405 -9.83144 51.2622 -12.8587C47.8796 -17.3538 43.1938 -21.1732 37.625 -23.9753C30.7926 -27.4133 23.9413 -28.8265 16.5696 -28.3188ZM4.92483 -22.428C3.26742 -21.8579 2.12165 -21.0607 0.6042 -19.4216C-2.51769 -16.0497 -2.74571 -10.8447 0.0380707 -6.49549C1.19126 -4.69377 2.02944 -3.8316 3.49065 -2.94459C7.03676 -0.791901 11.0206 -1.1311 13.8975 -3.83052C16.2814 -6.06713 17.3666 -8.93898 17.1728 -12.4982C16.9973 -15.719 15.4624 -18.7308 13.0335 -20.62C11.5599 -21.7659 10.8634 -22.1176 9.22628 -22.5418C7.48299 -22.9937 6.49351 -22.9673 4.92483 -22.428ZM29.1049 -22.3752C26.8073 -21.6138 24.812 -20.0429 23.3372 -17.8342C20.143 -13.051 21.2007 -5.95988 25.5407 -3.06165C27.9835 -1.43062 30.087 -1.14679 32.8522 -2.07501C35.9839 -3.12639 38.2698 -5.1921 39.5189 -8.09992C41.032 -11.6216 41.037 -14.4422 39.5355 -17.4433C38.6371 -19.239 36.6809 -21.1407 34.8817 -21.9674C33.4319 -22.6336 30.5073 -22.84 29.1049 -22.3752ZM5.1256 -18.9292C0.941433 -16.7697 0.422611 -11.0376 4.04654 -7.00668C6.43073 -4.35501 10.2315 -4.28111 12.1648 -6.84907C15.0988 -10.7455 13.6611 -16.661 9.26749 -18.7703C7.69532 -19.525 6.37798 -19.5755 5.1256 -18.9292ZM29.0685 -18.8599C27.8068 -18.2188 26.412 -16.8194 25.7589 -15.539C25.1669 -14.3786 24.7871 -12.1206 24.9563 -10.7671C25.1357 -9.33049 26.1108 -7.27983 27.0481 -6.36796C28.3881 -5.06414 31.0167 -4.63753 32.5961 -5.46765C33.9801 -6.19509 35.6558 -7.98177 36.3377 -9.45693C36.8768 -10.6236 36.9523 -11.0433 36.9499 -12.8587C36.9475 -14.6035 36.8666 -15.0842 36.4358 -15.9106C35.3278 -18.0372 33.6913 -19.1747 31.5092 -19.3351C30.4037 -19.4166 30.0159 -19.341 29.0685 -18.8599ZM-10.5372 -6.30823C-12.9938 -5.896 -15.4837 -3.93472 -16.7522 -1.41275C-18.8005 2.66003 -17.97 6.76049 -14.3918 10.2403C-12.2903 12.284 -10.0321 13.0402 -7.20608 12.6472C-5.23389 12.373 -4.22327 11.816 -2.59834 10.1078C0.353508 7.00465 1.03321 2.63256 -0.860064 -1.07115C-2.0126 -3.32542 -5.29624 -5.87682 -7.61002 -6.31564C-8.90534 -6.56132 -9.03069 -6.5611 -10.5372 -6.30823ZM45.0396 -5.88445C40.8835 -4.55709 38.0921 -0.23711 38.4368 4.334C38.5325 5.60163 38.7413 6.32232 39.4287 7.75476C40.5249 10.0396 41.6969 11.327 43.3586 12.0728C46.6728 13.5602 49.345 13.2146 52.4494 10.8976C53.8269 9.86952 54.8079 8.36602 55.616 6.04438C56.7332 2.83486 56.3142 -0.196779 54.3931 -2.8066C52.1113 -5.90603 48.6616 -7.04134 45.0396 -5.88445ZM-10.9963 -2.70261C-12.1238 -2.28973 -12.7778 -1.65799 -13.4547 -0.328228C-15.7506 4.18337 -11.8624 10.227 -7.35911 9.14665C-5.91272 8.79961 -4.57293 7.46701 -3.91285 5.71891C-2.64827 2.36966 -4.59561 -1.7369 -7.91652 -2.72311C-9.24933 -3.11877 -9.87062 -3.11484 -10.9963 -2.70261ZM45.6724 -2.31001C42.7361 -0.917685 41.3134 2.44116 42.268 5.72742C42.6824 7.15375 43.9926 8.59207 45.2759 9.02937C48.9602 10.2848 52.2016 7.74626 52.4876 3.38181C52.6591 0.763268 51.9452 -0.853374 50.0563 -2.12253C48.7189 -3.02132 47.3006 -3.08192 45.6724 -2.31001ZM17.071 4.15045C13.797 4.48355 10.6526 5.53885 7.87276 7.23768C6.05949 8.34596 2.76015 11.3043 2.26095 12.2701C2.26095 12.2701 1.73319 13.1004 1.51628 13.2874C0.742188 13.9547 -1.63678 19 -2.03396 20.8161C-2.86408 24.6129 -2.72718 30.1813 -1.71351 33.839C-0.809708 37.1006 1.84001 41.5174 3.83705 43.0913C8.78114 46.9882 20.9415 48.3134 29.3626 45.8729C32.9351 44.8377 33.9725 44.2925 35.7587 42.5117C36.6606 41.6125 37.9103 40.1089 38.5358 39.1705C41.1866 35.1925 42.3472 27.9835 41.2175 22.5103C39.8651 15.9555 35.256 9.70144 29.4068 6.48364C26.0404 4.63178 21.2493 3.72558 17.071 4.15045ZM9.66096 11.8766C7.06575 13.0051 5.63048 16.3518 7.46708 16.992C8.58625 17.3822 8.87793 17.2787 9.41812 16.2992C9.98294 15.2753 10.8342 14.7454 11.6002 14.9405C11.8773 15.0111 12.3937 15.5258 12.7554 16.0917C13.5262 17.2985 14.1789 17.4991 14.9567 16.7684C15.9032 15.8792 15.496 14.4018 13.9003 12.9356C12.496 11.6451 11.0332 11.2797 9.66096 11.8766ZM25.944 12.2644C24.1429 13.2275 23.0708 15.4857 23.8502 16.6753C24.3875 17.4952 25.1433 17.3944 25.866 16.4069C26.7026 15.2633 27.0163 15.0445 27.8181 15.0445C28.4067 15.0445 28.641 15.2141 29.2795 16.103C29.6979 16.6853 30.2383 17.2135 30.4804 17.2767C30.9914 17.4104 31.8004 17.0507 32.1119 16.5515C32.452 16.0063 32.094 14.7024 31.3304 13.7064C29.9658 11.9263 27.7074 11.3218 25.944 12.2644ZM16.6363 18.1271C16.0504 18.4251 15.6558 19.4732 15.8378 20.2478C15.9122 20.5632 16.3525 21.3321 16.8166 21.9564C17.8128 23.2968 17.9068 24.2059 17.1632 25.3094C15.8731 27.2236 13.3034 26.9942 12.6359 24.9052C12.2804 23.7928 12.1419 23.6877 11.2528 23.8545C10.0926 24.072 9.75448 24.5174 9.93302 25.5923C10.1443 26.8636 10.5286 27.5139 11.6558 28.5062C13.0804 29.7601 14.2872 30.0509 16.121 29.582C17.2777 29.2862 17.7028 29.0493 18.3439 28.3432C18.7799 27.8629 19.1997 27.4701 19.2769 27.4701C19.3543 27.4701 19.7081 27.801 20.0632 28.2056C21.0721 29.3544 22.6732 29.9424 24.4483 29.8153C25.7009 29.7257 26.068 29.5962 26.9915 28.9182C28.0503 28.1411 28.8793 27.2105 29.4162 26.1968C30.0166 25.0632 28.8137 23.8686 27.2252 24.021C26.6891 24.0725 26.4753 24.2083 26.4277 24.5272C26.2546 25.6924 26.0979 25.9895 25.4476 26.386C24.5547 26.9306 23.6278 26.9308 22.7351 26.3865C21.9187 25.8888 20.7122 24.312 20.7122 23.7429C20.7122 23.5273 21.2125 22.7497 21.8239 22.015C23.155 20.4156 23.2997 19.495 22.3674 18.5625C21.8342 18.0295 21.6541 17.9909 19.4572 17.939C18.0507 17.9056 16.9239 17.9808 16.6363 18.1271ZM1.56381 19.7416C0.736958 21.5564 1.61242 22.2269 5.43079 22.7035C7.68267 22.9845 7.68464 22.9845 8.09446 22.4783C8.6377 21.8075 8.62985 20.7947 8.07898 20.4998C7.49236 20.1858 3.1992 19.1863 2.43753 19.1863C1.98388 19.1863 1.74867 19.3359 1.56381 19.7416ZM34.2759 19.6417C31.4285 20.2981 30.9579 20.5508 30.9579 21.4225C30.9579 22.6625 31.3568 22.9807 32.7236 22.831C34.7215 22.6123 37.1027 21.9793 37.5282 21.5538C38.3431 20.7389 37.7678 19.1691 36.6678 19.206C36.3449 19.2169 35.2685 19.4131 34.2759 19.6417ZM6.43357 25.2383C5.46851 25.4144 2.6843 26.4081 2.0192 26.8137C1.16401 27.3352 1.15158 27.4655 1.8751 28.3253C2.57355 29.1556 3.35833 29.1988 4.76919 28.4844C5.32485 28.203 6.24871 27.7613 6.82203 27.5028C7.98328 26.9794 8.23529 26.5925 7.89761 25.8515C7.65542 25.32 7.14858 25.1077 6.43357 25.2383ZM31.4098 25.6466C30.9609 26.2169 30.7689 27.3947 31.1643 27.1503C31.2779 27.0801 32.2952 27.4176 33.4253 27.9004C35.8143 28.9211 36.445 28.9786 37.1805 28.2429C38.2109 27.2127 37.829 26.7889 34.9094 25.7233C32.6733 24.9072 32.0027 24.8926 31.4098 25.6466Z" fill="#21201C"/>
<path fill-rule="evenodd" clip-rule="evenodd" d="M16.5696 -28.3188C11.1161 -27.9432 5.08876 -26.3785 1.31072 -24.3572C-3.31467 -21.8828 -8.17724 -18.193 -10.5699 -15.3425C-13.231 -12.1725 -15.1347 -9.32199 -16.5966 -6.31891C-18.6856 -2.02814 -19.5822 1.5633 -20.0638 7.56794C-20.3034 10.5553 -20.0407 13.8666 -19.2635 17.6567C-18.0421 23.6131 -13.0006 31.9545 -7.60937 36.9387C-6.0409 38.3888 -2.8244 40.8338 -2.67813 40.6873C-2.62559 40.635 -2.77557 40.214 -3.01122 39.7523C-4.96358 35.9252 -5.91207 32.322 -6.04679 28.2198C-6.16167 24.7192 -5.93932 22.9247 -4.9808 19.6223C-4.10795 16.6147 -2.72457 13.9754 -0.409908 10.9026C3.32825 5.93975 6.81113 3.40382 12.1014 1.79263C15.0182 0.90453 16.6671 0.656887 19.666 0.656887C23.8262 0.656887 27.9849 1.65028 31.0863 3.38464C34.2561 5.15737 38.1109 8.85868 40.3911 12.3195C43.4853 17.0156 44.6511 20.725 44.8517 26.5107C44.9493 29.3292 44.8981 30.1327 44.4951 32.1007C43.9132 34.9416 42.6914 38.6216 41.9659 39.7179C41.2618 40.7819 41.2786 40.8527 42.13 40.4128C46.711 38.045 52.8824 30.539 55.8233 23.7581C58.378 17.8679 59.1196 13.444 58.6616 6.82676C58.4157 3.27651 58.3049 2.60858 57.4042 -0.760075C56.5791 -3.84578 53.5405 -9.83144 51.2622 -12.8587C47.8796 -17.3538 43.1938 -21.1732 37.625 -23.9753C30.7926 -27.4133 23.9413 -28.8265 16.5696 -28.3188ZM0.6042 -19.4216C2.12165 -21.0607 3.26742 -21.8579 4.92483 -22.428C6.49351 -22.9673 7.48299 -22.9937 9.22628 -22.5418C10.8634 -22.1176 11.5599 -21.7659 13.0335 -20.62C15.4624 -18.7308 16.9973 -15.719 17.1728 -12.4982C17.3666 -8.93898 16.2814 -6.06713 13.8975 -3.83052C11.0206 -1.1311 7.03676 -0.791901 3.49065 -2.94459C2.02944 -3.8316 1.19126 -4.69377 0.0380707 -6.49549C-2.74571 -10.8447 -2.51769 -16.0497 0.6042 -19.4216ZM23.3372 -17.8342C24.812 -20.0429 26.8073 -21.6138 29.1049 -22.3752C30.5073 -22.84 33.4319 -22.6336 34.8817 -21.9674C36.6809 -21.1407 38.6371 -19.239 39.5355 -17.4433C41.037 -14.4422 41.032 -11.6216 39.5189 -8.09992C38.2698 -5.1921 35.9839 -3.12639 32.8522 -2.07501C30.087 -1.14679 27.9835 -1.43062 25.5407 -3.06165C21.2007 -5.95988 20.143 -13.051 23.3372 -17.8342ZM-16.7522 -1.41275C-15.4837 -3.93472 -12.9938 -5.896 -10.5372 -6.30823C-9.03069 -6.5611 -8.90534 -6.56132 -7.61002 -6.31564C-5.29624 -5.87682 -2.0126 -3.32542 -0.860064 -1.07115C1.03321 2.63256 0.353508 7.00465 -2.59834 10.1078C-4.22327 11.816 -5.23389 12.373 -7.20608 12.6472C-10.0321 13.0402 -12.2903 12.284 -14.3918 10.2403C-17.97 6.76049 -18.8005 2.66003 -16.7522 -1.41275ZM38.4368 4.334C38.0921 -0.23711 40.8835 -4.55709 45.0396 -5.88445C48.6616 -7.04134 52.1113 -5.90603 54.3931 -2.8066C56.3142 -0.196779 56.7332 2.83486 55.616 6.04438C54.8079 8.36602 53.8269 9.86952 52.4494 10.8976C49.345 13.2146 46.6728 13.5602 43.3586 12.0728C41.6969 11.327 40.5249 10.0396 39.4287 7.75476C38.7413 6.32232 38.5325 5.60163 38.4368 4.334Z" fill="#A5D9D0"/>
<path fill-rule="evenodd" clip-rule="evenodd" d="M17.071 4.15045C13.797 4.48355 10.6526 5.53885 7.87276 7.23768C6.05949 8.34596 2.76015 11.3043 2.26095 12.2701C2.26095 12.2701 1.73319 13.1004 1.51628 13.2874C0.742188 13.9547 -1.63678 19 -2.03396 20.8161C-2.86408 24.6129 -2.72718 30.1813 -1.71351 33.839C-0.809708 37.1006 1.84001 41.5174 3.83705 43.0913C8.78114 46.9882 20.9415 48.3134 29.3626 45.8729C32.9351 44.8377 33.9725 44.2925 35.7587 42.5117C36.6606 41.6125 37.9103 40.1089 38.5358 39.1705C41.1866 35.1925 42.3472 27.9835 41.2175 22.5103C39.8651 15.9555 35.256 9.70144 29.4068 6.48364C26.0404 4.63178 21.2493 3.72558 17.071 4.15045ZM7.46708 16.992C5.63048 16.3518 7.06575 13.0051 9.66096 11.8766C11.0332 11.2797 12.496 11.6451 13.9003 12.9356C15.496 14.4018 15.9032 15.8792 14.9567 16.7684C14.1789 17.4991 13.5262 17.2985 12.7554 16.0917C12.3937 15.5258 11.8773 15.0111 11.6002 14.9405C10.8342 14.7454 9.98294 15.2753 9.41812 16.2992C8.87793 17.2787 8.58625 17.3822 7.46708 16.992ZM23.8502 16.6753C23.0708 15.4857 24.1429 13.2275 25.944 12.2644C27.7074 11.3218 29.9658 11.9263 31.3304 13.7064C32.094 14.7024 32.452 16.0063 32.1119 16.5515C31.8004 17.0507 30.9914 17.4104 30.4804 17.2767C30.2383 17.2135 29.6979 16.6853 29.2795 16.103C28.641 15.2141 28.4067 15.0445 27.8181 15.0445C27.0163 15.0445 26.7026 15.2633 25.866 16.4069C25.1433 17.3944 24.3875 17.4952 23.8502 16.6753ZM15.8378 20.2478C15.6558 19.4732 16.0504 18.4251 16.6363 18.1271C16.9239 17.9808 18.0507 17.9056 19.4572 17.939C21.6541 17.9909 21.8342 18.0295 22.3674 18.5625C23.2997 19.495 23.155 20.4156 21.8239 22.015C21.2125 22.7497 20.7122 23.5273 20.7122 23.7429C20.7122 24.312 21.9187 25.8888 22.7351 26.3865C23.6278 26.9308 24.5547 26.9306 25.4476 26.386C26.0979 25.9895 26.2546 25.6924 26.4277 24.5272C26.4753 24.2083 26.6891 24.0725 27.2252 24.021C28.8137 23.8686 30.0166 25.0632 29.4162 26.1968C28.8793 27.2105 28.0503 28.1411 26.9915 28.9182C26.068 29.5962 25.7009 29.7257 24.4483 29.8153C22.6732 29.9424 21.0721 29.3544 20.0632 28.2056C19.7081 27.801 19.3543 27.4701 19.2769 27.4701C19.1997 27.4701 18.7799 27.8629 18.3439 28.3432C17.7028 29.0493 17.2777 29.2862 16.121 29.582C14.2872 30.0509 13.0804 29.7601 11.6558 28.5062C10.5286 27.5139 10.1443 26.8636 9.93302 25.5923C9.75448 24.5174 10.0926 24.072 11.2528 23.8545C12.1419 23.6877 12.2804 23.7928 12.6359 24.9052C13.3034 26.9942 15.8731 27.2236 17.1632 25.3094C17.9068 24.2059 17.8128 23.2968 16.8166 21.9564C16.3525 21.3321 15.9122 20.5632 15.8378 20.2478ZM5.43079 22.7035C1.61242 22.2269 0.736958 21.5564 1.56381 19.7416C1.74867 19.3359 1.98388 19.1863 2.43753 19.1863C3.1992 19.1863 7.49236 20.1858 8.07898 20.4998C8.62985 20.7947 8.6377 21.8075 8.09446 22.4783C7.68464 22.9845 7.68267 22.9845 5.43079 22.7035ZM30.9579 21.4225C30.9579 20.5508 31.4285 20.2981 34.2759 19.6417C35.2685 19.4131 36.3449 19.2169 36.6678 19.206C37.7678 19.1691 38.3431 20.7389 37.5282 21.5538C37.1027 21.9793 34.7215 22.6123 32.7236 22.831C31.3568 22.9807 30.9579 22.6625 30.9579 21.4225ZM2.0192 26.8137C2.6843 26.4081 5.46851 25.4144 6.43357 25.2383C7.14858 25.1077 7.65542 25.32 7.89761 25.8515C8.23529 26.5925 7.98328 26.9794 6.82203 27.5028C6.24871 27.7613 5.32485 28.203 4.76919 28.4844C3.35833 29.1988 2.57355 29.1556 1.8751 28.3253C1.15158 27.4655 1.16401 27.3352 2.0192 26.8137ZM31.1643 27.1503C30.7689 27.3947 30.9609 26.2169 31.4098 25.6466C32.0027 24.8926 32.6733 24.9072 34.9094 25.7233C37.829 26.7889 38.2109 27.2127 37.1805 28.2429C36.445 28.9786 35.8143 28.9211 33.4253 27.9004C32.2952 27.4176 31.2779 27.0801 31.1643 27.1503Z" fill="#FAF6E8"/>
<path d="M-10.9963 -2.70261C-12.1238 -2.28973 -12.7778 -1.65799 -13.4547 -0.328228C-15.7506 4.18337 -11.8624 10.227 -7.35911 9.14665C-5.91272 8.79961 -4.57293 7.46701 -3.91285 5.71891C-2.64827 2.36966 -4.59561 -1.7369 -7.91652 -2.72311C-9.24933 -3.11877 -9.87062 -3.11484 -10.9963 -2.70261Z" fill="#FAF6E8"/>
<path d="M5.1256 -18.9292C0.941433 -16.7697 0.422611 -11.0376 4.04654 -7.00668C6.43073 -4.35501 10.2315 -4.28111 12.1648 -6.84907C15.0988 -10.7455 13.6611 -16.661 9.26749 -18.7703C7.69532 -19.525 6.37798 -19.5755 5.1256 -18.9292Z" fill="#FAF6E8"/>
<path d="M29.0685 -18.8599C27.8068 -18.2188 26.412 -16.8194 25.7589 -15.539C25.1669 -14.3786 24.7871 -12.1206 24.9563 -10.7671C25.1357 -9.33049 26.1108 -7.27983 27.0481 -6.36796C28.3881 -5.06414 31.0167 -4.63753 32.5961 -5.46765C33.9801 -6.19509 35.6558 -7.98177 36.3377 -9.45693C36.8768 -10.6236 36.9523 -11.0433 36.9499 -12.8587C36.9475 -14.6035 36.8666 -15.0842 36.4358 -15.9106C35.3278 -18.0372 33.6913 -19.1747 31.5092 -19.3351C30.4037 -19.4166 30.0159 -19.341 29.0685 -18.8599Z" fill="#FAF6E8"/>
<path d="M45.6724 -2.31001C42.7361 -0.917685 41.3134 2.44116 42.268 5.72742C42.6824 7.15375 43.9926 8.59207 45.2759 9.02937C48.9602 10.2848 52.2016 7.74626 52.4876 3.38181C52.6591 0.763268 51.9452 -0.853374 50.0563 -2.12253C48.7189 -3.02132 47.3006 -3.08192 45.6724 -2.31001Z" fill="#FAF6E8"/>
</g>
<path d="M55.416 9.6559C57.8906 9.6559 59.7786 10.1786 61.08 11.2239C62.3813 12.2692 63.032 13.7946 63.032 15.7999C63.032 17.8479 62.3813 19.4159 61.08 20.5039C59.7786 21.5706 57.8906 22.1039 55.416 22.1039H53.464V25.2719H56.696V28.5039H47.064V25.2719H49.752V12.8879H47.064V9.6559H55.416ZM55.384 19.1919C57.9013 19.1919 59.16 18.0932 59.16 15.8959C59.16 13.8906 57.9013 12.8879 55.384 12.8879H53.496V19.1919H55.384ZM75.1857 27.8639C73.6924 28.6959 72.167 29.1119 70.6097 29.1119C68.6257 29.1119 67.111 28.7279 66.0657 27.9599C65.0417 27.1919 64.5297 26.0719 64.5297 24.5999C64.5084 21.6346 66.4604 20.1519 70.3857 20.1519H73.9697C73.9697 18.8506 73.703 17.9012 73.1697 17.3039C72.6364 16.6852 71.943 16.3759 71.0897 16.3759C70.6204 16.3759 70.1724 16.4079 69.7457 16.4719C69.3404 16.5359 68.935 16.6319 68.5297 16.7599L68.2417 18.3279L65.2337 17.9119L65.8097 14.5199C66.663 14.2212 67.527 13.9972 68.4017 13.8479C69.2977 13.6772 70.2257 13.5919 71.1857 13.5919C73.2764 13.5919 74.8657 14.1466 75.9537 15.2559C77.063 16.3439 77.6177 17.9546 77.6177 20.0879V25.3999L80.3057 26.2639L79.3137 29.2719L75.1857 27.8639ZM70.4817 22.5199C69.7564 22.5199 69.2017 22.7012 68.8177 23.0639C68.4337 23.4266 68.2417 23.9279 68.2417 24.5679C68.2417 25.7839 69.0737 26.3919 70.7377 26.3919C71.911 26.3919 72.9884 26.0826 73.9697 25.4639V22.5519L70.4817 22.5199ZM85.143 28.5039L81.367 17.0799H79.287V14.1999H86.999V17.0799H85.175L86.487 22.0079L87.415 25.4319L88.279 22.0079L90.039 16.2799H93.687L95.479 22.0719L96.343 25.4639L97.207 22.1039L98.711 17.0799H96.759V14.1999H104.279V17.0799H102.231L98.103 28.5039H94.263L91.831 20.1519L89.143 28.5039H85.143ZM114.267 16.6639C113.883 16.5359 113.489 16.4399 113.083 16.3759C112.699 16.2906 112.283 16.2479 111.835 16.2479C111.089 16.2479 110.417 16.3866 109.819 16.6639C109.243 16.9412 108.955 17.3679 108.955 17.9439C108.955 18.4346 109.126 18.8292 109.467 19.1279C109.809 19.4266 110.47 19.6399 111.451 19.7679L113.371 20.0559C115.035 20.2692 116.241 20.7279 116.987 21.4319C117.734 22.1359 118.107 23.0959 118.107 24.3119C118.107 25.3999 117.819 26.3066 117.243 27.0319C116.667 27.7359 115.899 28.2586 114.939 28.5999C114.001 28.9412 112.966 29.1119 111.835 29.1119C110.641 29.1119 109.563 28.9839 108.603 28.7279C107.665 28.4932 106.801 28.1412 106.011 27.6719L105.435 24.3439L108.475 23.7999L108.827 25.5599C109.275 25.7732 109.734 25.9332 110.203 26.0399C110.673 26.1466 111.153 26.1999 111.643 26.1999C112.518 26.1999 113.275 26.0506 113.915 25.7519C114.555 25.4532 114.875 25.0052 114.875 24.4079C114.875 23.9599 114.715 23.5972 114.395 23.3199C114.075 23.0426 113.435 22.8506 112.475 22.7439L110.651 22.4559C109.115 22.2212 107.91 21.7412 107.035 21.0159C106.161 20.2906 105.723 19.3306 105.723 18.1359C105.723 17.1972 105.979 16.3866 106.491 15.7039C107.003 15.0212 107.718 14.4986 108.635 14.1359C109.553 13.7732 110.598 13.5919 111.771 13.5919C112.774 13.5919 113.702 13.7092 114.555 13.9439C115.409 14.1572 116.198 14.5199 116.923 15.0319L117.499 18.1039L114.779 18.6159L114.267 16.6639ZM127.678 13.5919C129.278 13.5919 130.643 13.9012 131.774 14.5199C132.904 15.1386 133.768 16.0346 134.366 17.2079C134.963 18.3599 135.262 19.7466 135.262 21.3679C135.262 23.7999 134.59 25.6986 133.246 27.0639C131.923 28.4292 130.067 29.1119 127.678 29.1119C126.12 29.1119 124.776 28.8026 123.646 28.1839C122.536 27.5652 121.683 26.6799 121.086 25.5279C120.51 24.3546 120.222 22.9679 120.222 21.3679C120.222 19.7466 120.51 18.3599 121.086 17.2079C121.683 16.0346 122.536 15.1386 123.646 14.5199C124.776 13.9012 126.12 13.5919 127.678 13.5919ZM127.678 16.5679C126.398 16.5679 125.427 16.9839 124.766 17.8159C124.126 18.6266 123.806 19.8106 123.806 21.3679C123.806 22.9252 124.126 24.1199 124.766 24.9519C125.427 25.7839 126.398 26.1999 127.678 26.1999C129 26.1999 129.992 25.7839 130.654 24.9519C131.315 24.1199 131.646 22.9252 131.646 21.3679C131.646 19.8106 131.315 18.6266 130.654 17.8159C129.992 16.9839 129 16.5679 127.678 16.5679ZM137.411 28.5039V25.5919H140.067V17.7199L137.027 16.7599L137.987 13.8159L142.531 15.2879C143.192 14.7332 143.928 14.3172 144.739 14.0399C145.571 13.7412 146.403 13.5919 147.235 13.5919C148.109 13.5919 148.92 13.7412 149.667 14.0399C150.435 14.3386 151.053 14.7866 151.523 15.3839C152.163 14.8719 152.888 14.4452 153.699 14.1039C154.531 13.7626 155.395 13.5919 156.291 13.5919C158.296 13.5919 159.747 14.0719 160.643 15.0319C161.539 15.9919 161.987 17.5919 161.987 19.8319V25.5919H164.707V28.5039H157.091V25.5919H158.339V20.0239C158.339 18.8292 158.147 17.9866 157.763 17.4959C157.379 16.9839 156.717 16.7279 155.779 16.7279C155.288 16.7279 154.765 16.8346 154.211 17.0479C153.677 17.2399 153.229 17.4852 152.867 17.7839V25.5919H154.115V28.5039H147.939V25.5919H149.219V20.0239C149.219 18.8292 149.027 17.9866 148.643 17.4959C148.259 16.9839 147.597 16.7279 146.659 16.7279C146.168 16.7279 145.645 16.8346 145.091 17.0479C144.557 17.2399 144.099 17.4852 143.715 17.7839V25.5919H145.027V28.5039H137.411ZM180.107 26.7439C179.147 27.5546 178.166 28.1519 177.163 28.5359C176.161 28.9199 175.126 29.1119 174.059 29.1119C172.459 29.1119 171.051 28.7919 169.835 28.1519C168.641 27.4906 167.713 26.5839 167.051 25.4319C166.39 24.2586 166.059 22.9146 166.059 21.3999C166.059 19.8212 166.369 18.4559 166.987 17.3039C167.627 16.1306 168.502 15.2239 169.611 14.5839C170.721 13.9226 172.011 13.5919 173.483 13.5919C174.955 13.5919 176.235 13.8906 177.323 14.4879C178.411 15.0852 179.254 15.9279 179.851 17.0159C180.449 18.0826 180.747 19.3412 180.747 20.7919C180.747 21.0479 180.726 21.3359 180.683 21.6559C180.662 21.9759 180.63 22.2852 180.587 22.5839H169.579C169.643 23.4159 169.889 24.1092 170.315 24.6639C170.742 25.1972 171.275 25.5919 171.915 25.8479C172.577 26.1039 173.291 26.2319 174.059 26.2319C174.955 26.2319 175.809 26.0932 176.619 25.8159C177.43 25.5172 178.166 25.1012 178.827 24.5679L180.107 26.7439ZM177.131 20.0879C177.11 19.0212 176.779 18.1679 176.139 17.5279C175.521 16.8666 174.667 16.5359 173.579 16.5359C172.555 16.5359 171.659 16.8666 170.891 17.5279C170.145 18.1679 169.729 19.0212 169.643 20.0879H177.131Z" fill="#21201C"/>
<defs>
<clipPath id="clip0_3925_5817">
<rect x="0.246094" width="38.0083" height="38.0083" rx="7.12655" fill="white"/>
</clipPath>
</defs>
</svg>
