<svg width="170" height="96" viewBox="0 0 170 96" fill="none" xmlns="http://www.w3.org/2000/svg">
<path fill-rule="evenodd" clip-rule="evenodd" d="M82.9201 0.890527C80.6505 1.22132 79.1462 1.50203 78.2706 1.75807C73.8019 3.06464 69.4648 5.78083 66.5139 9.12055C62.122 14.0913 60.0586 20.5528 60.8432 26.8782C61.2783 30.3847 62.2816 33.0331 64.3674 36.18C66.5923 39.5367 67.8669 40.8796 70.4548 42.5934C74.303 45.1418 78.6186 46.9449 82.3621 47.5686C84.4848 47.9222 88.3649 47.5833 91.153 46.801C92.1957 46.5085 96.0687 44.9862 97.1166 44.4571C98.1523 43.9342 99.9046 42.7451 101.124 41.7377C104.229 39.1727 107.204 34.6988 108.449 30.7205C109.086 28.6877 109.318 27.0123 109.32 24.4353C109.323 19.4652 108.274 15.8643 105.672 11.9205C104.469 10.0963 103.718 9.18428 102.121 7.60679C98.7322 4.25951 93.9673 1.88131 89.1194 1.1178C87.9362 0.931567 83.7036 0.776335 82.9201 0.890527ZM83.4777 2.80948C80.3759 3.02311 76.9477 3.91309 74.7989 5.06269C72.1682 6.47007 69.4025 8.56868 68.0416 10.1899C66.5281 11.993 65.4453 13.6142 64.6139 15.3223C63.4257 17.7627 62.9158 19.8054 62.6419 23.2206C62.5056 24.9197 62.655 26.8031 63.097 28.9587C63.7917 32.3466 66.6592 37.0908 69.7255 39.9256C70.6176 40.7504 72.447 42.1411 72.5302 42.0577C72.5601 42.028 72.4748 41.7886 72.3408 41.526C71.2303 39.3492 70.6909 37.2998 70.6142 34.9667C70.5489 32.9757 70.6754 31.955 71.2205 30.0767C71.717 28.3661 72.5038 26.865 73.8203 25.1172C75.9464 22.2946 77.9274 20.8522 80.9363 19.9358C82.5952 19.4307 83.5331 19.2898 85.2388 19.2898C87.6049 19.2898 89.9702 19.8549 91.7342 20.8413C93.5371 21.8496 95.7296 23.9547 97.0265 25.9232C98.7864 28.5941 99.4494 30.7039 99.5635 33.9946C99.619 35.5976 99.5899 36.0546 99.3607 37.174C99.0297 38.7898 98.3348 40.8828 97.9222 41.5064C97.5217 42.1115 97.5312 42.1518 98.0155 41.9016C100.621 40.5549 104.131 36.2858 105.804 32.429C107.257 29.0789 107.679 26.5627 107.418 22.7991C107.278 20.7798 107.215 20.3999 106.703 18.4839C106.234 16.7289 104.505 13.3245 103.21 11.6026C101.286 9.04603 98.6206 6.87365 95.4532 5.27992C91.5672 3.32452 87.6704 2.52071 83.4777 2.80948ZM76.8545 6.15998C75.9118 6.48421 75.2602 6.93763 74.3971 7.86989C72.6215 9.78772 72.4918 12.7482 74.0751 15.2218C74.731 16.2466 75.2077 16.737 76.0388 17.2415C78.0557 18.4658 80.3216 18.2729 81.9578 16.7376C83.3137 15.4655 83.931 13.8321 83.8207 11.8077C83.7209 9.97581 82.8479 8.2628 81.4665 7.18833C80.6283 6.53653 80.2322 6.33654 79.301 6.09526C78.3095 5.83823 77.7467 5.85324 76.8545 6.15998ZM90.6073 6.18999C89.3005 6.62307 88.1656 7.51652 87.3268 8.77276C85.5101 11.4933 86.1116 15.5265 88.5801 17.1749C89.9695 18.1025 91.1659 18.264 92.7386 17.736C94.5198 17.138 95.82 15.9631 96.5304 14.3093C97.391 12.3063 97.3939 10.702 96.5398 8.99507C96.0289 7.97379 94.9162 6.89213 93.8929 6.42197C93.0683 6.04306 91.4049 5.92565 90.6073 6.18999ZM76.9687 8.14997C74.5889 9.37819 74.2938 12.6384 76.355 14.9311C77.711 16.4393 79.8727 16.4813 80.9724 15.0207C82.6411 12.8046 81.8234 9.44006 79.3245 8.24036C78.4303 7.81112 77.681 7.78235 76.9687 8.14997ZM90.5866 8.1894C89.8689 8.55405 89.0757 9.34992 88.7042 10.0782C88.3675 10.7382 88.1515 12.0225 88.2477 12.7923C88.3497 13.6094 88.9043 14.7757 89.4375 15.2944C90.1996 16.0359 91.6947 16.2786 92.5929 15.8064C93.3801 15.3927 94.3332 14.3765 94.7211 13.5375C95.0277 12.8739 95.0706 12.6352 95.0692 11.6026C95.0679 10.6103 95.0219 10.3369 94.7769 9.86682C94.1466 8.65733 93.2159 8.01036 91.9747 7.91911C91.346 7.87274 91.1254 7.91576 90.5866 8.1894ZM68.0602 15.3283C66.663 15.5628 65.2468 16.6783 64.5254 18.1127C63.3604 20.4292 63.8328 22.7614 65.8679 24.7406C67.0631 25.9029 68.3475 26.3331 69.9549 26.1095C71.0766 25.9535 71.6514 25.6367 72.5756 24.6652C74.2545 22.9002 74.6411 20.4135 73.5643 18.307C72.9087 17.0248 71.0411 15.5737 69.7251 15.3241C68.9884 15.1844 68.9171 15.1845 68.0602 15.3283ZM99.6704 15.5694C97.3066 16.3243 95.7189 18.7814 95.9149 21.3813C95.9694 22.1022 96.0881 22.5121 96.4791 23.3269C97.1026 24.6264 97.7692 25.3586 98.7143 25.7828C100.599 26.6288 102.119 26.4322 103.885 25.1144C104.668 24.5297 105.226 23.6745 105.686 22.3541C106.321 20.5286 106.083 18.8043 104.99 17.3199C103.693 15.5571 101.73 14.9114 99.6704 15.5694ZM67.7991 17.3791C67.1578 17.6139 66.7859 17.9732 66.4009 18.7295C65.0951 21.2956 67.3065 24.733 69.8678 24.1185C70.6905 23.9211 71.4525 23.1632 71.8279 22.169C72.5472 20.264 71.4396 17.9283 69.5508 17.3674C68.7927 17.1424 68.4394 17.1446 67.7991 17.3791ZM100.03 17.6024C98.3602 18.3943 97.5511 20.3047 98.094 22.1738C98.3297 22.985 99.0749 23.8031 99.8048 24.0518C101.9 24.7659 103.744 23.322 103.907 20.8397C104.004 19.3504 103.598 18.4309 102.524 17.709C101.763 17.1978 100.956 17.1633 100.03 17.6024ZM83.7628 21.2769C81.9007 21.4663 80.1123 22.0665 78.5312 23.0328C77.4999 23.6631 75.6233 25.3457 75.3394 25.895C75.3394 25.895 75.0392 26.3673 74.9158 26.4737C74.4756 26.8532 73.1225 29.7227 72.8966 30.7557C72.4244 32.9152 72.5023 36.0823 73.0789 38.1627C73.5929 40.0178 75.1 42.5299 76.2358 43.4251C79.0478 45.6415 85.9642 46.3952 90.7538 45.0071C92.7857 44.4183 93.3758 44.1082 94.3918 43.0954C94.9047 42.5839 95.6155 41.7288 95.9712 41.195C97.4789 38.9325 98.139 34.8323 97.4965 31.7193C96.7273 27.9911 94.1058 24.4341 90.779 22.6039C88.8643 21.5506 86.1393 21.0352 83.7628 21.2769ZM79.5483 25.6712C78.0722 26.3131 77.2559 28.2165 78.3004 28.5807C78.937 28.8026 79.1029 28.7437 79.4101 28.1867C79.7314 27.6043 80.2156 27.3029 80.6512 27.4139C80.8088 27.454 81.1026 27.7468 81.3083 28.0686C81.7467 28.755 82.1179 28.8691 82.5603 28.4535C83.0986 27.9477 82.867 27.1075 81.9594 26.2735C81.1607 25.5395 80.3288 25.3317 79.5483 25.6712ZM88.8095 25.8918C87.7851 26.4396 87.1753 27.7239 87.6186 28.4005C87.9242 28.8669 88.3541 28.8096 88.7651 28.2479C89.2409 27.5975 89.4194 27.473 89.8754 27.473C90.2102 27.473 90.3434 27.5695 90.7066 28.0751C90.9445 28.4063 91.2519 28.7067 91.3896 28.7426C91.6803 28.8186 92.1404 28.6141 92.3176 28.3301C92.511 28.02 92.3074 27.2785 91.8731 26.712C91.0969 25.6995 89.8124 25.3557 88.8095 25.8918ZM83.5156 29.2263C83.1823 29.3958 82.9579 29.9919 83.0614 30.4324C83.1037 30.6119 83.3542 31.0492 83.6181 31.4043C84.1848 32.1667 84.2382 32.6837 83.8153 33.3113C83.0815 34.4 81.62 34.2696 81.2403 33.0814C81.0381 32.4487 80.9594 32.389 80.4536 32.4838C79.7937 32.6076 79.6014 32.8609 79.703 33.4722C79.8231 34.1953 80.0417 34.5652 80.6829 35.1296C81.4931 35.8428 82.1795 36.0082 83.2225 35.7415C83.8804 35.5732 84.1221 35.4384 84.4868 35.0368C84.7348 34.7637 84.9736 34.5403 85.0175 34.5403C85.0615 34.5403 85.2627 34.7285 85.4647 34.9586C86.0385 35.612 86.9492 35.9464 87.9588 35.8741C88.6712 35.8232 88.88 35.7495 89.4052 35.3639C90.0074 34.9219 90.479 34.3926 90.7843 33.8161C91.1258 33.1713 90.4416 32.4919 89.5381 32.5785C89.2333 32.6078 89.1116 32.685 89.0846 32.8664C88.9862 33.5291 88.897 33.6981 88.5272 33.9237C88.0193 34.2334 87.4921 34.2335 86.9844 33.9239C86.5201 33.6409 85.8338 32.7441 85.8338 32.4203C85.8338 32.2977 86.1183 31.8554 86.4661 31.4376C87.2232 30.5279 87.3055 30.0043 86.7752 29.4739C86.4719 29.1708 86.3695 29.1488 85.12 29.1193C84.32 29.1003 83.6791 29.1431 83.5156 29.2263ZM74.9429 30.1445C74.4726 31.1767 74.9705 31.5581 77.1423 31.8292C78.4231 31.989 78.4242 31.989 78.6573 31.7011C78.9663 31.3196 78.9618 30.7435 78.6485 30.5758C78.3148 30.3972 75.873 29.8288 75.4398 29.8288C75.1818 29.8288 75.048 29.9138 74.9429 30.1445ZM93.5484 30.0878C91.9289 30.4611 91.6612 30.6048 91.6612 31.1006C91.6612 31.8059 91.8881 31.9869 92.6655 31.9017C93.8018 31.7773 95.1561 31.4173 95.3982 31.1753C95.8616 30.7118 95.5344 29.819 94.9088 29.8399C94.7251 29.8461 94.1129 29.9577 93.5484 30.0878ZM77.7126 33.2709C77.1637 33.3711 75.5802 33.9362 75.2019 34.1669C74.7155 34.4635 74.7084 34.5377 75.1199 35.0267C75.5172 35.4989 75.9635 35.5235 76.766 35.1172C77.082 34.9571 77.6075 34.7059 77.9336 34.5589C78.594 34.2612 78.7374 34.0411 78.5453 33.6197C78.4076 33.3174 78.1193 33.1966 77.7126 33.2709ZM91.9182 33.5031C91.6629 33.8275 91.5537 34.4974 91.7786 34.3584C91.8432 34.3185 92.4218 34.5104 93.0646 34.785C94.4234 35.3655 94.7821 35.3983 95.2004 34.9798C95.7865 34.3938 95.5693 34.1528 93.9087 33.5468C92.6368 33.0825 92.2554 33.0742 91.9182 33.5031Z" fill="#21201C"/>
<path fill-rule="evenodd" clip-rule="evenodd" d="M83.4777 2.80948C80.3759 3.02311 76.9477 3.91309 74.7989 5.06269C72.1682 6.47007 69.4025 8.56868 68.0416 10.1899C66.5281 11.993 65.4453 13.6142 64.6139 15.3223C63.4257 17.7627 62.9158 19.8054 62.6419 23.2206C62.5056 24.9197 62.655 26.8031 63.097 28.9587C63.7917 32.3466 66.6592 37.0908 69.7255 39.9256C70.6176 40.7504 72.447 42.1411 72.5302 42.0577C72.5601 42.028 72.4748 41.7886 72.3408 41.526C71.2303 39.3492 70.6909 37.2998 70.6142 34.9667C70.5489 32.9757 70.6754 31.955 71.2205 30.0767C71.717 28.3661 72.5038 26.865 73.8203 25.1172C75.9464 22.2946 77.9274 20.8522 80.9363 19.9358C82.5952 19.4307 83.5331 19.2898 85.2388 19.2898C87.6049 19.2898 89.9702 19.8549 91.7342 20.8413C93.5371 21.8496 95.7296 23.9547 97.0265 25.9232C98.7864 28.5941 99.4494 30.7039 99.5635 33.9946C99.619 35.5976 99.5899 36.0546 99.3607 37.174C99.0297 38.7898 98.3348 40.8828 97.9222 41.5064C97.5217 42.1115 97.5312 42.1518 98.0155 41.9016C100.621 40.5549 104.131 36.2858 105.804 32.429C107.257 29.0789 107.679 26.5627 107.418 22.7991C107.278 20.7798 107.215 20.3999 106.703 18.4839C106.234 16.7289 104.505 13.3245 103.21 11.6026C101.286 9.04603 98.6206 6.87365 95.4532 5.27992C91.5672 3.32452 87.6704 2.52071 83.4777 2.80948ZM74.3971 7.86989C75.2602 6.93763 75.9118 6.48421 76.8545 6.15998C77.7467 5.85324 78.3095 5.83823 79.301 6.09526C80.2322 6.33654 80.6283 6.53653 81.4665 7.18833C82.8479 8.2628 83.7209 9.97581 83.8207 11.8077C83.931 13.8321 83.3137 15.4655 81.9578 16.7376C80.3216 18.2729 78.0557 18.4658 76.0388 17.2415C75.2077 16.737 74.731 16.2466 74.0751 15.2218C72.4918 12.7482 72.6215 9.78772 74.3971 7.86989ZM87.3268 8.77276C88.1656 7.51652 89.3005 6.62307 90.6073 6.18999C91.4049 5.92565 93.0683 6.04306 93.8929 6.42197C94.9162 6.89213 96.0289 7.97379 96.5398 8.99507C97.3939 10.702 97.391 12.3063 96.5304 14.3093C95.82 15.9631 94.5198 17.138 92.7386 17.736C91.1659 18.264 89.9695 18.1025 88.5801 17.1749C86.1116 15.5265 85.5101 11.4933 87.3268 8.77276ZM64.5254 18.1127C65.2468 16.6783 66.663 15.5628 68.0602 15.3283C68.9171 15.1845 68.9884 15.1844 69.7251 15.3241C71.0411 15.5737 72.9087 17.0248 73.5643 18.307C74.6411 20.4135 74.2545 22.9002 72.5756 24.6652C71.6514 25.6367 71.0766 25.9535 69.9549 26.1095C68.3475 26.3331 67.0631 25.9029 65.8679 24.7406C63.8328 22.7614 63.3604 20.4292 64.5254 18.1127ZM95.9149 21.3813C95.7189 18.7814 97.3066 16.3243 99.6704 15.5694C101.73 14.9114 103.693 15.5571 104.99 17.3199C106.083 18.8043 106.321 20.5286 105.686 22.3541C105.226 23.6745 104.668 24.5297 103.885 25.1144C102.119 26.4322 100.599 26.6288 98.7143 25.7828C97.7692 25.3586 97.1026 24.6264 96.4791 23.3269C96.0881 22.5121 95.9694 22.1022 95.9149 21.3813Z" fill="#A5D9D0"/>
<path fill-rule="evenodd" clip-rule="evenodd" d="M83.7628 21.2769C81.9007 21.4663 80.1123 22.0665 78.5312 23.0328C77.4999 23.6631 75.6233 25.3457 75.3394 25.895C75.3394 25.895 75.0392 26.3673 74.9158 26.4737C74.4756 26.8532 73.1225 29.7227 72.8966 30.7557C72.4244 32.9152 72.5023 36.0823 73.0789 38.1627C73.5929 40.0178 75.1 42.5299 76.2358 43.4251C79.0478 45.6415 85.9642 46.3952 90.7538 45.0071C92.7857 44.4183 93.3758 44.1082 94.3918 43.0954C94.9047 42.5839 95.6155 41.7288 95.9712 41.195C97.4789 38.9325 98.139 34.8323 97.4965 31.7193C96.7273 27.9911 94.1058 24.4341 90.779 22.6039C88.8643 21.5506 86.1393 21.0352 83.7628 21.2769ZM78.3004 28.5807C77.2559 28.2165 78.0722 26.3131 79.5483 25.6712C80.3288 25.3317 81.1607 25.5395 81.9594 26.2735C82.867 27.1075 83.0986 27.9477 82.5603 28.4535C82.1179 28.8691 81.7467 28.755 81.3083 28.0686C81.1026 27.7468 80.8088 27.454 80.6512 27.4139C80.2156 27.3029 79.7314 27.6043 79.4101 28.1867C79.1029 28.7437 78.937 28.8026 78.3004 28.5807ZM87.6186 28.4005C87.1753 27.7239 87.7851 26.4396 88.8095 25.8918C89.8124 25.3557 91.0969 25.6995 91.8731 26.712C92.3074 27.2785 92.511 28.02 92.3176 28.3301C92.1404 28.6141 91.6803 28.8186 91.3896 28.7426C91.2519 28.7067 90.9445 28.4063 90.7066 28.0751C90.3434 27.5695 90.2102 27.473 89.8754 27.473C89.4194 27.473 89.2409 27.5975 88.7651 28.2479C88.3541 28.8096 87.9242 28.8669 87.6186 28.4005ZM83.0614 30.4324C82.9579 29.9919 83.1823 29.3958 83.5156 29.2263C83.6791 29.1431 84.32 29.1003 85.12 29.1193C86.3695 29.1488 86.4719 29.1708 86.7752 29.4739C87.3055 30.0043 87.2232 30.5279 86.4661 31.4376C86.1183 31.8554 85.8338 32.2977 85.8338 32.4203C85.8338 32.7441 86.5201 33.6409 86.9844 33.9239C87.4921 34.2335 88.0193 34.2334 88.5272 33.9237C88.897 33.6981 88.9862 33.5291 89.0846 32.8664C89.1116 32.685 89.2333 32.6078 89.5381 32.5785C90.4416 32.4919 91.1258 33.1713 90.7843 33.8161C90.479 34.3926 90.0074 34.9219 89.4052 35.3639C88.88 35.7495 88.6712 35.8232 87.9588 35.8741C86.9492 35.9464 86.0385 35.612 85.4647 34.9586C85.2627 34.7285 85.0615 34.5403 85.0175 34.5403C84.9736 34.5403 84.7348 34.7637 84.4868 35.0368C84.1221 35.4384 83.8804 35.5732 83.2225 35.7415C82.1795 36.0082 81.4931 35.8428 80.6829 35.1296C80.0417 34.5652 79.8231 34.1953 79.703 33.4722C79.6014 32.8609 79.7937 32.6076 80.4536 32.4838C80.9594 32.389 81.0381 32.4487 81.2403 33.0814C81.62 34.2696 83.0815 34.4 83.8153 33.3113C84.2382 32.6837 84.1848 32.1667 83.6181 31.4043C83.3542 31.0492 83.1037 30.6119 83.0614 30.4324ZM77.1423 31.8292C74.9705 31.5581 74.4726 31.1767 74.9429 30.1445C75.048 29.9138 75.1818 29.8288 75.4398 29.8288C75.873 29.8288 78.3148 30.3972 78.6485 30.5758C78.9618 30.7435 78.9663 31.3196 78.6573 31.7011C78.4242 31.989 78.4231 31.989 77.1423 31.8292ZM91.6612 31.1006C91.6612 30.6048 91.9289 30.4611 93.5484 30.0878C94.1129 29.9577 94.7251 29.8461 94.9088 29.8399C95.5344 29.819 95.8616 30.7118 95.3982 31.1753C95.1561 31.4173 93.8018 31.7773 92.6655 31.9017C91.8881 31.9869 91.6612 31.8059 91.6612 31.1006ZM75.2019 34.1669C75.5802 33.9362 77.1637 33.3711 77.7126 33.2709C78.1193 33.1966 78.4076 33.3174 78.5453 33.6197C78.7374 34.0411 78.594 34.2612 77.9336 34.5589C77.6075 34.7059 77.082 34.9571 76.766 35.1172C75.9635 35.5235 75.5172 35.4989 75.1199 35.0267C74.7084 34.5377 74.7155 34.4635 75.2019 34.1669ZM91.7786 34.3584C91.5537 34.4974 91.6629 33.8275 91.9182 33.5031C92.2554 33.0742 92.6368 33.0825 93.9087 33.5468C95.5693 34.1528 95.7865 34.3938 95.2004 34.9798C94.7821 35.3983 94.4234 35.3655 93.0646 34.785C92.4218 34.5104 91.8432 34.3185 91.7786 34.3584Z" fill="#FAF6E8"/>
<path d="M67.7991 17.3791C67.1578 17.6139 66.7859 17.9732 66.4009 18.7295C65.0951 21.2956 67.3065 24.733 69.8678 24.1185C70.6905 23.9211 71.4525 23.1632 71.8279 22.169C72.5472 20.264 71.4396 17.9283 69.5508 17.3674C68.7927 17.1424 68.4394 17.1446 67.7991 17.3791Z" fill="#FAF6E8"/>
<path d="M76.9687 8.14997C74.5889 9.37819 74.2938 12.6384 76.355 14.9311C77.711 16.4393 79.8727 16.4813 80.9724 15.0207C82.6411 12.8046 81.8234 9.44006 79.3245 8.24036C78.4303 7.81112 77.681 7.78235 76.9687 8.14997Z" fill="#FAF6E8"/>
<path d="M90.5866 8.1894C89.8689 8.55405 89.0757 9.34992 88.7042 10.0782C88.3675 10.7382 88.1515 12.0225 88.2477 12.7923C88.3497 13.6094 88.9043 14.7757 89.4375 15.2944C90.1996 16.0359 91.6947 16.2786 92.5929 15.8064C93.3801 15.3927 94.3332 14.3765 94.7211 13.5375C95.0277 12.8739 95.0706 12.6352 95.0692 11.6026C95.0679 10.6103 95.0219 10.3369 94.7769 9.86682C94.1466 8.65733 93.2159 8.01036 91.9747 7.91911C91.346 7.87274 91.1254 7.91576 90.5866 8.1894Z" fill="#FAF6E8"/>
<path d="M100.03 17.6024C98.3602 18.3943 97.5511 20.3047 98.094 22.1738C98.3297 22.985 99.0749 23.8031 99.8048 24.0518C101.9 24.7659 103.744 23.322 103.907 20.8397C104.004 19.3504 103.598 18.4309 102.524 17.709C101.763 17.1978 100.956 17.1633 100.03 17.6024Z" fill="#FAF6E8"/>
<path d="M26.664 51.7916C29.1387 51.7916 31.0267 52.3143 32.328 53.3596C33.6293 54.405 34.28 55.9303 34.28 57.9356C34.28 59.9836 33.6293 61.5516 32.328 62.6396C31.0267 63.7063 29.1387 64.2396 26.664 64.2396H24.712V67.4076H27.944V70.6396H18.312V67.4076H21V55.0236H18.312V51.7916H26.664ZM26.632 61.3276C29.1493 61.3276 30.408 60.229 30.408 58.0316C30.408 56.0263 29.1493 55.0236 26.632 55.0236H24.744V61.3276H26.632ZM46.4338 69.9996C44.9404 70.8316 43.4151 71.2476 41.8578 71.2476C39.8738 71.2476 38.3591 70.8636 37.3138 70.0956C36.2898 69.3276 35.7778 68.2076 35.7778 66.7356C35.7564 63.7703 37.7084 62.2876 41.6338 62.2876H45.2178C45.2178 60.9863 44.9511 60.037 44.4178 59.4396C43.8844 58.821 43.1911 58.5116 42.3378 58.5116C41.8684 58.5116 41.4204 58.5436 40.9938 58.6076C40.5884 58.6716 40.1831 58.7676 39.7778 58.8956L39.4898 60.4636L36.4818 60.0476L37.0578 56.6556C37.9111 56.357 38.7751 56.133 39.6498 55.9836C40.5458 55.813 41.4738 55.7276 42.4338 55.7276C44.5244 55.7276 46.1138 56.2823 47.2018 57.3916C48.3111 58.4796 48.8658 60.0903 48.8658 62.2236V67.5356L51.5538 68.3996L50.5618 71.4076L46.4338 69.9996ZM41.7298 64.6556C41.0044 64.6556 40.4498 64.837 40.0658 65.1996C39.6818 65.5623 39.4898 66.0636 39.4898 66.7036C39.4898 67.9196 40.3218 68.5276 41.9858 68.5276C43.1591 68.5276 44.2364 68.2183 45.2178 67.5996V64.6876L41.7298 64.6556ZM56.391 70.6396L52.615 59.2156H50.535V56.3356H58.247V59.2156H56.423L57.735 64.1436L58.663 67.5676L59.527 64.1436L61.287 58.4156H64.935L66.727 64.2076L67.591 67.5996L68.455 64.2396L69.959 59.2156H68.007V56.3356H75.527V59.2156H73.479L69.351 70.6396H65.511L63.079 62.2876L60.391 70.6396H56.391ZM85.5153 58.7996C85.1313 58.6716 84.7366 58.5756 84.3313 58.5116C83.9473 58.4263 83.5313 58.3836 83.0833 58.3836C82.3366 58.3836 81.6646 58.5223 81.0673 58.7996C80.4913 59.077 80.2033 59.5036 80.2033 60.0796C80.2033 60.5703 80.3739 60.965 80.7153 61.2636C81.0566 61.5623 81.7179 61.7756 82.6993 61.9036L84.6193 62.1916C86.2833 62.405 87.4886 62.8636 88.2353 63.5676C88.9819 64.2716 89.3553 65.2316 89.3553 66.4476C89.3553 67.5356 89.0673 68.4423 88.4913 69.1676C87.9153 69.8716 87.1473 70.3943 86.1873 70.7356C85.2486 71.077 84.2139 71.2476 83.0833 71.2476C81.8886 71.2476 80.8113 71.1196 79.8513 70.8636C78.9126 70.629 78.0486 70.277 77.2593 69.8076L76.6833 66.4796L79.7233 65.9356L80.0753 67.6956C80.5233 67.909 80.9819 68.069 81.4513 68.1756C81.9206 68.2823 82.4006 68.3356 82.8913 68.3356C83.7659 68.3356 84.5233 68.1863 85.1633 67.8876C85.8033 67.589 86.1233 67.141 86.1233 66.5436C86.1233 66.0956 85.9633 65.733 85.6433 65.4556C85.3233 65.1783 84.6833 64.9863 83.7233 64.8796L81.8993 64.5916C80.3633 64.357 79.1579 63.877 78.2833 63.1516C77.4086 62.4263 76.9713 61.4663 76.9713 60.2716C76.9713 59.333 77.2273 58.5223 77.7393 57.8396C78.2513 57.157 78.9659 56.6343 79.8833 56.2716C80.8006 55.909 81.8459 55.7276 83.0193 55.7276C84.0219 55.7276 84.9499 55.845 85.8033 56.0796C86.6566 56.293 87.4459 56.6556 88.1713 57.1676L88.7473 60.2396L86.0273 60.7516L85.5153 58.7996ZM98.9258 55.7276C100.526 55.7276 101.891 56.037 103.022 56.6556C104.152 57.2743 105.016 58.1703 105.614 59.3436C106.211 60.4956 106.51 61.8823 106.51 63.5036C106.51 65.9356 105.838 67.8343 104.494 69.1996C103.171 70.565 101.315 71.2476 98.9258 71.2476C97.3684 71.2476 96.0244 70.9383 94.8938 70.3196C93.7844 69.701 92.9311 68.8156 92.3338 67.6636C91.7578 66.4903 91.4698 65.1036 91.4698 63.5036C91.4698 61.8823 91.7578 60.4956 92.3338 59.3436C92.9311 58.1703 93.7844 57.2743 94.8938 56.6556C96.0244 56.037 97.3684 55.7276 98.9258 55.7276ZM98.9258 58.7036C97.6458 58.7036 96.6751 59.1196 96.0138 59.9516C95.3738 60.7623 95.0538 61.9463 95.0538 63.5036C95.0538 65.061 95.3738 66.2556 96.0138 67.0876C96.6751 67.9196 97.6458 68.3356 98.9258 68.3356C100.248 68.3356 101.24 67.9196 101.902 67.0876C102.563 66.2556 102.894 65.061 102.894 63.5036C102.894 61.9463 102.563 60.7623 101.902 59.9516C101.24 59.1196 100.248 58.7036 98.9258 58.7036ZM108.659 70.6396V67.7276H111.315V59.8556L108.275 58.8956L109.235 55.9516L113.779 57.4236C114.44 56.869 115.176 56.453 115.987 56.1756C116.819 55.877 117.651 55.7276 118.483 55.7276C119.357 55.7276 120.168 55.877 120.915 56.1756C121.683 56.4743 122.301 56.9223 122.771 57.5196C123.411 57.0076 124.136 56.581 124.947 56.2396C125.779 55.8983 126.643 55.7276 127.539 55.7276C129.544 55.7276 130.995 56.2076 131.891 57.1676C132.787 58.1276 133.235 59.7276 133.235 61.9676V67.7276H135.955V70.6396H128.339V67.7276H129.587V62.1596C129.587 60.965 129.395 60.1223 129.011 59.6316C128.627 59.1196 127.965 58.8636 127.027 58.8636C126.536 58.8636 126.013 58.9703 125.459 59.1836C124.925 59.3756 124.477 59.621 124.115 59.9196V67.7276H125.363V70.6396H119.187V67.7276H120.467V62.1596C120.467 60.965 120.275 60.1223 119.891 59.6316C119.507 59.1196 118.845 58.8636 117.907 58.8636C117.416 58.8636 116.893 58.9703 116.339 59.1836C115.805 59.3756 115.347 59.621 114.963 59.9196V67.7276H116.275V70.6396H108.659ZM151.356 68.8796C150.396 69.6903 149.414 70.2876 148.412 70.6716C147.409 71.0556 146.374 71.2476 145.308 71.2476C143.708 71.2476 142.3 70.9276 141.084 70.2876C139.889 69.6263 138.961 68.7196 138.299 67.5676C137.638 66.3943 137.308 65.0503 137.308 63.5356C137.308 61.957 137.617 60.5916 138.236 59.4396C138.876 58.2663 139.75 57.3596 140.86 56.7196C141.969 56.0583 143.26 55.7276 144.732 55.7276C146.204 55.7276 147.484 56.0263 148.572 56.6236C149.66 57.221 150.502 58.0636 151.1 59.1516C151.697 60.2183 151.996 61.477 151.996 62.9276C151.996 63.1836 151.974 63.4716 151.932 63.7916C151.91 64.1116 151.878 64.421 151.836 64.7196H140.828C140.892 65.5516 141.137 66.245 141.564 66.7996C141.99 67.333 142.524 67.7276 143.164 67.9836C143.825 68.2396 144.54 68.3676 145.308 68.3676C146.204 68.3676 147.057 68.229 147.868 67.9516C148.678 67.653 149.414 67.237 150.076 66.7036L151.356 68.8796ZM148.38 62.2236C148.358 61.157 148.028 60.3036 147.388 59.6636C146.769 59.0023 145.916 58.6716 144.828 58.6716C143.804 58.6716 142.908 59.0023 142.14 59.6636C141.393 60.3036 140.977 61.157 140.891 62.2236H148.38Z" fill="#21201C"/>
<path d="M35.7959 80.3433C35.7542 80.3155 35.6222 80.2739 35.3999 80.2183C35.1914 80.1627 34.9344 80.1071 34.6287 80.0515C34.323 79.9959 34.0034 79.9682 33.6699 79.9682C32.461 79.9682 31.5301 80.3572 30.877 81.1354C30.2239 81.9135 29.8974 83.0251 29.8974 84.4702C29.8974 85.9292 30.2309 87.0547 30.8978 87.8467C31.5648 88.6387 32.4888 89.0348 33.6699 89.0348C34.0173 89.0348 34.3438 88.9931 34.6495 88.9097C34.9552 88.8263 35.2123 88.7499 35.4207 88.6804C35.6291 88.5971 35.7542 88.5484 35.7959 88.5345L36.2336 86.7212L38.2553 87.1798L37.63 90.1394C37.63 90.1394 37.4633 90.2158 37.1298 90.3687C36.7963 90.5215 36.3308 90.6744 35.7333 90.8272C35.1358 90.9801 34.448 91.0565 33.6699 91.0565C32.4193 91.0565 31.3216 90.8203 30.3768 90.3478C29.4458 89.8615 28.7163 89.132 28.1883 88.1594C27.6602 87.1728 27.3962 85.9431 27.3962 84.4702C27.3962 83.1085 27.6533 81.9413 28.1674 80.9686C28.6815 79.9959 29.411 79.2526 30.3559 78.7384C31.3008 78.2104 32.3985 77.9464 33.6491 77.9464C34.5245 77.9464 35.2609 78.0367 35.8584 78.2174C36.4698 78.3841 36.9283 78.5578 37.234 78.7384C37.5397 78.9191 37.6926 79.0094 37.6926 79.0094L38.2762 81.9482L36.2336 82.4068L35.7959 80.3433ZM44.6687 80.9269C45.7108 80.9269 46.6001 81.1284 47.3366 81.5314C48.073 81.9343 48.6358 82.5179 49.0248 83.2822C49.4139 84.0325 49.6084 84.9357 49.6084 85.9917C49.6084 87.5758 49.1707 88.8124 48.2953 89.7017C47.4338 90.591 46.225 91.0357 44.6687 91.0357C43.6543 91.0357 42.7789 90.8342 42.0425 90.4312C41.32 90.0283 40.7642 89.4516 40.3751 88.7013C39.9999 87.937 39.8123 87.0339 39.8123 85.9917C39.8123 84.9357 39.9999 84.0325 40.3751 83.2822C40.7642 82.5179 41.32 81.9343 42.0425 81.5314C42.7789 81.1284 43.6543 80.9269 44.6687 80.9269ZM44.6687 82.8653C43.835 82.8653 43.2028 83.1363 42.772 83.6782C42.3551 84.2062 42.1467 84.9774 42.1467 85.9917C42.1467 87.0061 42.3551 87.7842 42.772 88.3261C43.2028 88.868 43.835 89.139 44.6687 89.139C45.5302 89.139 46.1763 88.868 46.6071 88.3261C47.0378 87.7842 47.2532 87.0061 47.2532 85.9917C47.2532 84.9774 47.0378 84.2062 46.6071 83.6782C46.1763 83.1363 45.5302 82.8653 44.6687 82.8653ZM51.0081 90.6396V88.743H52.7381V83.6156L50.758 82.9904L51.3833 81.0728L54.343 82.0316C54.7737 81.6703 55.2531 81.3994 55.7811 81.2187C56.323 81.0242 56.865 80.9269 57.4069 80.9269C57.9766 80.9269 58.5046 81.0242 58.9909 81.2187C59.4911 81.4133 59.8941 81.7051 60.1998 82.0941C60.6167 81.7606 61.0891 81.4827 61.6171 81.2604C62.159 81.0381 62.7218 80.9269 63.3054 80.9269C64.6115 80.9269 65.5564 81.2396 66.14 81.8648C66.7236 82.4901 67.0154 83.5323 67.0154 84.9913V88.743H68.787V90.6396H63.8264V88.743H64.6393V85.1163C64.6393 84.3382 64.5142 83.7893 64.2641 83.4697C64.014 83.1363 63.5833 82.9695 62.9719 82.9695C62.6523 82.9695 62.3119 83.039 61.9506 83.1779C61.6032 83.303 61.3114 83.4628 61.0752 83.6573V88.743H61.8881V90.6396H57.8654V88.743H58.6991V85.1163C58.6991 84.3382 58.5741 83.7893 58.324 83.4697C58.0738 83.1363 57.6431 82.9695 57.0317 82.9695C56.7121 82.9695 56.3717 83.039 56.0104 83.1779C55.663 83.303 55.3643 83.4628 55.1142 83.6573V88.743H55.9687V90.6396H51.0081ZM70.2429 90.6396V88.743H71.9729V83.6156L69.9928 82.9904L70.6181 81.0728L73.5778 82.0316C74.0085 81.6703 74.4879 81.3994 75.0159 81.2187C75.5578 81.0242 76.0997 80.9269 76.6416 80.9269C77.2113 80.9269 77.7394 81.0242 78.2257 81.2187C78.7259 81.4133 79.1289 81.7051 79.4346 82.0941C79.8514 81.7606 80.3239 81.4827 80.8519 81.2604C81.3938 81.0381 81.9565 80.9269 82.5401 80.9269C83.8463 80.9269 84.7912 81.2396 85.3748 81.8648C85.9583 82.4901 86.2501 83.5323 86.2501 84.9913V88.743H88.0218V90.6396H83.0612V88.743H83.8741V85.1163C83.8741 84.3382 83.749 83.7893 83.4989 83.4697C83.2488 83.1363 82.818 82.9695 82.2067 82.9695C81.8871 82.9695 81.5466 83.039 81.1854 83.1779C80.838 83.303 80.5462 83.4628 80.31 83.6573V88.743H81.1228V90.6396H77.1002V88.743H77.9339V85.1163C77.9339 84.3382 77.8088 83.7893 77.5587 83.4697C77.3086 83.1363 76.8779 82.9695 76.2665 82.9695C75.9469 82.9695 75.6064 83.039 75.2452 83.1779C74.8978 83.303 74.599 83.4628 74.3489 83.6573V88.743H75.2035V90.6396H70.2429ZM97.4702 90.1394C97.0117 90.4034 96.5045 90.6188 95.9487 90.7855C95.3929 90.9523 94.8718 91.0357 94.3855 91.0357C92.9682 91.0357 91.9261 90.723 91.2591 90.0977C90.606 89.4725 90.2795 88.4998 90.2795 87.1798V83.1988H88.6329V81.3229H92.6555V86.8254C92.6555 87.5758 92.7945 88.1177 93.0724 88.4512C93.3642 88.7846 93.8297 88.9514 94.4689 88.9514C94.7885 88.9514 95.1567 88.8958 95.5735 88.7846C96.0043 88.6735 96.3933 88.5415 96.7407 88.3886V83.1988H95.0942V81.3229H99.1168V88.4095L100.951 89.0348L100.305 91.0773L97.4702 90.1394ZM102.321 90.6396V88.743H104.093V83.6782L102.092 82.9904L102.696 81.0937L105.594 82.0941C106.135 81.7328 106.684 81.448 107.24 81.2396C107.796 81.0311 108.456 80.9269 109.22 80.9269C110.082 80.9269 110.776 81.0937 111.304 81.4272C111.846 81.7606 112.242 82.2261 112.492 82.8236C112.756 83.4072 112.888 84.0742 112.888 84.8245V88.743H114.618V90.6396H109.658V88.743H110.533V85.1372C110.533 84.4702 110.387 83.9491 110.096 83.574C109.804 83.1849 109.324 82.9904 108.657 82.9904C108.254 82.9904 107.851 83.0598 107.449 83.1988C107.059 83.3377 106.726 83.5045 106.448 83.699V88.743H107.303V90.6396H102.321ZM115.997 81.3229H120.124V88.743H121.854V90.6396H115.997V88.743H117.727V83.1988H115.997V81.3229ZM118.706 76.8001C119.137 76.8001 119.485 76.9321 119.749 77.1961C120.013 77.4601 120.145 77.8075 120.145 78.2382C120.145 78.669 120.013 79.0163 119.749 79.2803C119.485 79.5444 119.137 79.6764 118.706 79.6764C118.276 79.6764 117.928 79.5444 117.664 79.2803C117.414 79.0163 117.289 78.669 117.289 78.2382C117.289 77.8075 117.414 77.4601 117.664 77.1961C117.928 76.9321 118.276 76.8001 118.706 76.8001ZM128.017 91.0357C127.337 91.0357 126.739 90.9037 126.225 90.6396C125.725 90.3756 125.336 89.9657 125.058 89.4099C124.78 88.8541 124.641 88.1385 124.641 87.2631V83.1988H122.911V81.3229H124.641V79.5305L126.934 78.8426V81.3229H129.456V83.1988H126.934V86.5962C126.934 87.3882 127.038 88.0065 127.246 88.4512C127.469 88.8958 127.83 89.1181 128.33 89.1181C128.719 89.1181 129.185 88.9792 129.727 88.7013L130.164 90.4521C129.845 90.6049 129.497 90.7369 129.122 90.8481C128.761 90.9731 128.393 91.0357 128.017 91.0357ZM133.84 95.6836C133.562 95.6836 133.27 95.6489 132.965 95.5794C132.659 95.5238 132.339 95.4265 132.006 95.2876L132.444 93.4534C132.694 93.5507 132.916 93.6202 133.111 93.6618C133.319 93.7174 133.541 93.7452 133.778 93.7452C134.111 93.7452 134.389 93.6618 134.611 93.4951C134.848 93.3423 135.07 93.0644 135.278 92.6614C135.501 92.2723 135.751 91.7235 136.029 91.0148L139.134 83.1988H138.05L138.155 81.3229H143.053V83.1988H141.448L137.613 92.2237C137.099 93.4465 136.543 94.3288 135.945 94.8707C135.348 95.4126 134.646 95.6836 133.84 95.6836ZM136.466 92.0153L132.339 83.1988H130.818V81.3229H135.904V83.1988H134.757L137.571 89.8476L136.466 92.0153Z" fill="#21201C"/>
</svg>
